<svg width="60" height="60" viewBox="0 0 60 60" fill="none" xmlns="http://www.w3.org/2000/svg">
<g clip-path="url(#clip0_408_1122)">
<path d="M30.0005 10.3054L27.3117 7.54162C21.0005 1.05412 9.42796 3.29287 5.25046 11.4491C3.44296 14.9816 2.92546 19.9616 5.65546 26.2504H1.61296C-6.36704 4.88662 17.2317 -6.86213 29.3405 4.28662C29.5655 4.49412 29.7855 4.70787 30.0005 4.92787C30.2117 4.70648 30.4319 4.49381 30.6605 4.29037C42.773 -6.86213 66.368 4.88662 58.388 26.2504H54.3455C57.0755 19.9616 56.558 14.9816 54.7505 11.4491C50.573 3.29287 39.0005 1.05037 32.6892 7.53787L30.0005 10.3054ZM8.29546 37.5004H13.2267C17.2242 41.9366 22.688 46.7179 30.0005 51.7316C37.3092 46.7179 42.7767 41.9366 46.7742 37.5004H51.7055C46.9617 43.3729 39.9305 49.6879 30.0005 56.2504C20.0705 49.6879 13.0392 43.3729 8.29546 37.5004Z" fill="currentColor"/>
<path d="M39.24 12.4275C39.0945 12.0644 38.8392 11.756 38.5097 11.5453C38.1802 11.3346 37.793 11.2322 37.4024 11.2524C37.0118 11.2727 36.6374 11.4145 36.3314 11.6582C36.0255 11.9019 35.8034 12.2351 35.6963 12.6112L29.7038 33.585L24.24 19.9275C24.1128 19.6107 23.9014 19.3346 23.6288 19.1291C23.3561 18.9236 23.0326 18.7964 22.693 18.7613C22.3533 18.7261 22.0106 18.7844 21.7017 18.9298C21.3927 19.0752 21.1294 19.3022 20.94 19.5862L13.995 30H1.875C1.37772 30 0.900806 30.1975 0.549175 30.5492C0.197544 30.9008 0 31.3777 0 31.875C0 32.3723 0.197544 32.8492 0.549175 33.2008C0.900806 33.5525 1.37772 33.75 1.875 33.75H15C15.3088 33.7498 15.6127 33.6734 15.8849 33.5275C16.157 33.3816 16.3889 33.1708 16.56 32.9137L22.0837 24.63L28.26 40.0725C28.4055 40.4355 28.6608 40.744 28.9903 40.9547C29.3198 41.1654 29.707 41.2678 30.0976 41.2476C30.4882 41.2273 30.8626 41.0854 31.1686 40.8418C31.4745 40.5981 31.6966 40.2649 31.8037 39.8887L37.7963 18.915L43.26 32.5725C43.3993 32.9201 43.6395 33.218 43.9496 33.4278C44.2597 33.6377 44.6255 33.7499 45 33.75H58.125C58.6223 33.75 59.0992 33.5525 59.4508 33.2008C59.8025 32.8492 60 32.3723 60 31.875C60 31.3777 59.8025 30.9008 59.4508 30.5492C59.0992 30.1975 58.6223 30 58.125 30H46.2675L39.24 12.4275Z" fill="currentColor"/>
</g>
<defs>
<clipPath id="clip0_408_1122">
<rect width="60" height="60" fill="white"/>
</clipPath>
</defs>
</svg>
