<svg width="24" height="24" viewBox="0 0 24 24" fill="none" xmlns="http://www.w3.org/2000/svg">
<path d="M13.072 2.75L13.2515 4.1065L13.4265 4.1295L14.0215 3.017L14.96 3.347C14.899 4.023 14.203 5.1825 15.4255 5.6285C14.626 5.8965 14.202 6.167 13.41 5.622C12.954 5.308 12.2665 5.656 11.999 5.7695C11.671 5.908 11.287 6.0545 11.354 6.6085C11.3715 6.759 11.5195 6.905 11.17 7.3535C10.476 8.13 9.982 8.051 9.1135 9.6075C8.0485 8.204 8.6005 5.303 10.382 4.2705L10.169 3.428L11.0855 3.029L11.803 4.154L12.2085 2.75H13.072Z" stroke="currentColor" stroke-linecap="round" stroke-linejoin="round"/>
<path d="M12.8265 18.6325C13.5926 17.0097 13.9025 15.209 13.723 13.4235C13.561 11.8625 13.6465 11.989 13.817 11.3035C15.056 12.292 16.606 12.121 17.872 11.811C18.0513 12.0958 18.1723 12.4134 18.2278 12.7453C18.2833 13.0772 18.2723 13.4169 18.1955 13.7445C17.8126 16.129 16.7025 18.337 15.017 20.0665C13.6175 21.501 12.2165 21.6425 10.6305 20.4315C8.39749 18.726 6.51499 16.7265 5.77249 13.9005C5.36899 12.3645 6.61749 9.95201 8.10249 9.38851C8.45249 9.24351 8.85499 9.33101 9.11349 9.60751M9.11349 9.60751C9.90574 10.357 10.5083 11.2842 10.8715 12.3125C11.1455 12.99 11.378 13.684 11.6475 14.421C10.3695 10.8195 9.81449 10.1885 9.11349 9.60751ZM9.11349 9.60751C9.55599 8.54001 10.786 7.72551 11.1695 7.35351C11.3195 7.19201 11.398 6.97651 11.385 6.75651C11.3483 6.66527 11.3316 6.56724 11.3359 6.469C11.3402 6.37076 11.3654 6.27458 11.4099 6.18689C11.4544 6.0992 11.5172 6.02204 11.5939 5.96058C11.6707 5.89911 11.7597 5.85477 11.855 5.83051C12.4455 5.58451 13.01 5.25051 13.675 5.79751C13.8462 5.88053 14.0325 5.92778 14.2226 5.93637C14.4127 5.94497 14.6025 5.91473 14.7805 5.84751C15.7355 5.54351 16.6605 5.14751 17.478 4.83301L18.572 7.03801C17.9035 7.50001 17.082 8.03151 16.3025 8.61901C15.6926 9.06671 15.1192 9.56227 14.588 10.101" stroke="currentColor" stroke-linecap="round" stroke-linejoin="round"/>
<path d="M9.1135 9.6075C7.8115 8.4885 6.3 10.9225 5.8885 12.1035C5.46188 11.3707 5.32541 10.5045 5.506 9.676C5.9795 7.948 6.489 6.229 6.9645 4.573H9.9535C9.66672 4.82005 9.4207 5.11079 9.2245 5.4345C8.91139 5.94903 8.7075 6.52248 8.62552 7.11919C8.54355 7.7159 8.58524 8.32309 8.748 8.903C8.8415 9.1515 8.9645 9.388 9.1135 9.6075ZM16.303 8.619C16.9366 9.25206 17.2965 10.1084 17.3055 11.004C17.3065 11.18 17.3545 11.929 17.198 11.953C16.3747 12.1238 15.521 12.0768 14.7215 11.8165C13.682 11.435 13.8095 11.0425 14.2705 10.4765C14.8719 9.77883 15.5542 9.15528 16.303 8.619Z" stroke="currentColor" stroke-linecap="round" stroke-linejoin="round"/>
</svg>
