<svg width="24" height="22" viewBox="0 0 24 22" fill="none" xmlns="http://www.w3.org/2000/svg">
<path d="M12.7501 1.25C12.7501 1.05109 12.6711 0.860322 12.5304 0.71967C12.3898 0.579018 12.199 0.5 12.0001 0.5C11.8012 0.5 11.6104 0.579018 11.4698 0.71967C11.3291 0.860322 11.2501 1.05109 11.2501 1.25V9.1145L10.5001 9.65V6.08C10.5001 4.655 9.34509 3.5 7.92009 3.5C7.13409 3.5 6.38559 3.905 5.75559 4.388C5.10909 4.886 4.48509 5.5475 3.93159 6.2315C2.82759 7.5935 1.91109 9.1505 1.56159 9.9515C1.29759 10.559 0.972087 11.6915 0.727587 12.968C0.480087 14.2535 0.303087 15.7535 0.366087 17.1065C0.426087 18.407 0.715587 19.7915 1.62309 20.6015C2.62809 21.5015 4.05609 21.4355 5.73459 20.5955L8.42709 19.25C9.04998 18.9386 9.57384 18.4598 9.93998 17.8674C10.3061 17.2751 10.5001 16.5924 10.5001 15.896V14.75C10.5001 14.5511 10.4211 14.3603 10.2804 14.2197C10.1398 14.079 9.949 14 9.75009 14C9.55117 14 9.36041 14.079 9.21976 14.2197C9.0791 14.3603 9.00009 14.5511 9.00009 14.75V15.896C9.00007 16.3141 8.88358 16.7239 8.66367 17.0794C8.44376 17.435 8.12914 17.7223 7.75509 17.909L5.06409 19.2545C3.59709 19.988 2.94159 19.769 2.62209 19.4825C2.20209 19.1075 1.92159 18.281 1.86459 17.0375C1.80909 15.845 1.96659 14.4725 2.20059 13.25C2.43609 12.02 2.73609 11.0135 2.93709 10.55C3.22209 9.893 4.06209 8.45 5.09709 7.175C5.61009 6.542 6.15159 5.9765 6.67059 5.5775C7.20759 5.1635 7.62909 5 7.92009 5C8.20652 5 8.48122 5.11379 8.68376 5.31633C8.8863 5.51886 9.00009 5.79357 9.00009 6.08V10.721L6.31509 12.641C6.16451 12.7605 6.06559 12.9333 6.03875 13.1237C6.01191 13.3141 6.0592 13.5075 6.17085 13.664C6.2825 13.8205 6.45 13.9281 6.63874 13.9647C6.82748 14.0013 7.02306 13.964 7.18509 13.8605L12.0001 10.421L16.8151 13.8605C16.895 13.9214 16.9864 13.9656 17.0838 13.9904C17.1811 14.0153 17.2825 14.0204 17.3819 14.0053C17.4812 13.9903 17.5765 13.9554 17.6621 13.9028C17.7478 13.8501 17.8219 13.7809 17.8802 13.699C17.9386 13.6172 17.9798 13.5244 18.0016 13.4263C18.0234 13.3282 18.0252 13.2268 18.007 13.1279C17.9888 13.0291 17.9509 12.9349 17.8956 12.851C17.8403 12.7671 17.7687 12.6952 17.6851 12.6395L15.0001 10.721V6.08C15.0001 5.79357 15.1139 5.51886 15.3164 5.31633C15.5189 5.11379 15.7937 5 16.0801 5C16.3711 5 16.7926 5.165 17.3296 5.5775C17.8486 5.9765 18.3886 6.542 18.9046 7.1765C19.9366 8.4515 20.7766 9.893 21.0631 10.55C21.2641 11.0135 21.5641 12.02 21.7996 13.25C22.0336 14.471 22.1896 15.845 22.1356 17.0375C22.0786 18.281 21.7996 19.1075 21.3781 19.4825C21.0586 19.7675 20.4031 19.988 18.9361 19.2545L16.2436 17.909C15.8698 17.7221 15.5555 17.4347 15.3359 17.0792C15.1162 16.7236 15 16.3139 15.0001 15.896V14.75C15.0001 14.5511 14.9211 14.3603 14.7804 14.2197C14.6398 14.079 14.449 14 14.2501 14C14.0512 14 13.8604 14.079 13.7198 14.2197C13.5791 14.3603 13.5001 14.5511 13.5001 14.75V15.896C13.5001 16.5924 13.6941 17.2751 14.0602 17.8674C14.4263 18.4598 14.9502 18.9386 15.5731 19.25L18.2656 20.5955C19.9456 21.4355 21.3706 21.5 22.3771 20.6015C23.2846 19.7915 23.5741 18.407 23.6341 17.1065C23.6971 15.7535 23.5201 14.2535 23.2741 12.968C23.0281 11.69 22.7041 10.559 22.4371 9.95C22.0891 9.1505 21.1726 7.5935 20.0686 6.2315C19.5136 5.5475 18.8911 4.886 18.2446 4.388C17.6146 3.905 16.8661 3.5 16.0801 3.5C14.6551 3.5 13.5001 4.655 13.5001 6.08V9.65L12.7501 9.1145V1.25Z" fill="currentColor"/>
</svg>
