<svg width="24" height="24" viewBox="0 0 24 24" fill="none" xmlns="http://www.w3.org/2000/svg">
<path fill-rule="evenodd" clip-rule="evenodd" d="M14.974 2.12003C15.2073 2.24583 15.3811 2.45911 15.4572 2.713C15.5334 2.96689 15.5056 3.24061 15.38 3.47403L12.406 8.99803C11.473 10.73 10.049 12.541 8.48799 13.791C7.84399 14.306 7.16099 14.953 6.76199 15.626C6.37699 16.274 6.33599 16.783 6.62199 17.26C6.93399 17.78 7.44199 18.149 8.02999 18.285C8.48698 17.8106 9.03321 17.4311 9.6373 17.1684C10.2414 16.9057 10.8914 16.765 11.5501 16.7543C12.2087 16.7436 12.863 16.8632 13.4753 17.1061C14.0876 17.3491 14.6459 17.7107 15.118 18.17L13.725 19.605C13.3049 19.1959 12.7742 18.9189 12.1983 18.8081C11.6225 18.6974 11.0268 18.7579 10.485 18.982C10.799 19.129 11.105 19.301 11.389 19.498C12.119 20.006 12.905 20.84 12.905 22H10.905C10.905 21.815 10.771 21.505 10.245 21.14C9.74799 20.792 9.08499 20.537 8.52899 20.425L7.70499 20.261C7.12695 20.1454 6.57945 19.9103 6.09761 19.5707C5.61576 19.2311 5.21022 18.7945 4.90699 18.289C4.10599 16.953 4.44099 15.617 5.04199 14.605C5.62799 13.617 6.53799 12.789 7.23799 12.229C8.55999 11.172 9.81999 9.58203 10.645 8.05003L13.62 2.52603C13.7456 2.29256 13.9588 2.11853 14.2127 2.04221C14.4666 1.96589 14.7405 1.99452 14.974 2.12003ZM17 17.645C17.0018 16.9141 16.7349 16.208 16.25 15.661L17.75 14.337C18.24 14.8923 18.6004 15.5496 18.8054 16.2612C19.0104 16.9728 19.0547 17.7211 18.9352 18.452C18.8157 19.1828 18.5353 19.878 18.1143 20.4873C17.6934 21.0966 17.1423 21.6047 16.501 21.975L15.499 20.244C16.399 19.724 17 18.754 17 17.644" fill="currentColor"/>
</svg>
