<svg width="20" height="20" viewBox="0 0 20 20" fill="none" xmlns="http://www.w3.org/2000/svg">
<path d="M7.00002 4.00002C7.50002 4.50002 8.50302 4.41202 10 3.17602M10 3.17602C9.77869 2.99468 9.54902 2.78602 9.31102 2.55002C7.00502 0.266016 3.86502 0.713016 2.39402 2.55002C1.37802 3.82002 -1.22198 6.98001 5.14202 18.24C5.40602 18.706 5.93102 19 6.49602 19C7.39802 19 8.10302 18.28 8.13202 17.44C8.19502 15.658 8.54002 13.603 10 13.603C11.46 13.603 11.806 15.658 11.868 17.44C11.897 18.28 12.602 19 13.504 19C14.069 19 14.594 18.706 14.858 18.24C21.223 6.97902 18.622 3.82002 17.606 2.55002C16.135 0.713016 12.995 0.266016 10.689 2.55002C10.451 2.78535 10.2214 2.99402 10 3.17602Z" stroke="currentColor" stroke-width="1.5" stroke-linecap="round" stroke-linejoin="round"/>
</svg>
