<svg width="23" height="22" viewBox="0 0 23 22" fill="none" xmlns="http://www.w3.org/2000/svg">
<path fill-rule="evenodd" clip-rule="evenodd" d="M11.5 1.75C6.39137 1.75 2.25 5.89137 2.25 11C2.25 12.4811 2.59753 13.8788 3.2148 15.1181C3.46254 15.6155 3.55794 16.2103 3.40163 16.7945L2.80602 19.0205C2.69663 19.4293 3.07066 19.8034 3.47949 19.694L5.70553 19.0984C6.28973 18.9421 6.88451 19.0375 7.38191 19.2852C8.62121 19.9025 10.0189 20.25 11.5 20.25C16.6086 20.25 20.75 16.1086 20.75 11C20.75 5.89137 16.6086 1.75 11.5 1.75ZM0.75 11C0.75 5.06294 5.56294 0.25 11.5 0.25C17.4371 0.25 22.25 5.06294 22.25 11C22.25 16.9371 17.4371 21.75 11.5 21.75C9.78169 21.75 8.15552 21.3463 6.71315 20.6279C6.49791 20.5207 6.27814 20.4979 6.09324 20.5474L3.8672 21.143C2.34337 21.5507 0.949273 20.1566 1.357 18.6328L1.9526 16.4068C2.00208 16.2219 1.97933 16.0021 1.87213 15.7869C1.15371 14.3445 0.75 12.7183 0.75 11ZM6.75 9.5C6.75 9.08579 7.08579 8.75 7.5 8.75H15.5C15.9142 8.75 16.25 9.08579 16.25 9.5C16.25 9.91421 15.9142 10.25 15.5 10.25H7.5C7.08579 10.25 6.75 9.91421 6.75 9.5ZM6.75 13C6.75 12.5858 7.08579 12.25 7.5 12.25H13C13.4142 12.25 13.75 12.5858 13.75 13C13.75 13.4142 13.4142 13.75 13 13.75H7.5C7.08579 13.75 6.75 13.4142 6.75 13Z" fill="currentColor"/>
</svg>
