<svg width="25" height="24" viewBox="0 0 25 24" fill="none" xmlns="http://www.w3.org/2000/svg">
<path d="M2.68473 13.2135C2.33171 10.9162 2.1552 9.76763 2.5895 8.74938C3.0238 7.73112 3.98736 7.03443 5.91447 5.64106L7.35432 4.6C9.75163 2.86667 10.9503 2 12.3333 2C13.7164 2 14.915 2.86667 17.3123 4.6L18.7522 5.64106C20.6793 7.03443 21.6429 7.73112 22.0772 8.74938C22.5115 9.76763 22.335 10.9162 21.9819 13.2135L21.6809 15.1724C21.1805 18.4289 20.9302 20.0572 19.7623 21.0286C18.5944 22 16.887 22 13.4721 22H11.1945C7.77967 22 6.07224 22 4.90433 21.0286C3.73643 20.0572 3.4862 18.4289 2.98576 15.1724L2.68473 13.2135Z" fill="white" stroke="currentColor" stroke-width="1.5" stroke-linejoin="round"/>
<path d="M10.3333 18L14.3333 18" stroke="currentColor" stroke-width="1.5" stroke-linecap="round" stroke-linejoin="round"/>
</svg>
