<svg viewBox="0 0 66 59" fill="none" xmlns="http://www.w3.org/2000/svg">
<g filter="url(#filter0_d_1077_4376)">
<path d="M17.4204 13.9734L35.4901 34.1436C36.8144 35.6218 39.2644 34.7056 39.2938 32.7212L39.4428 22.6791C39.4517 22.0785 39.708 21.5081 40.1513 21.1027L47.5938 14.2957C49.0569 12.9575 48.1188 10.5192 46.1359 10.5068L19.0578 10.3386C17.1663 10.3268 16.1582 12.5646 17.4204 13.9734Z" fill="#145DB8"/>
<path d="M17.4204 13.9734L35.4901 34.1436C36.8144 35.6218 39.2644 34.7056 39.2938 32.7212L39.4428 22.6791C39.4517 22.0785 39.708 21.5081 40.1513 21.1027L47.5938 14.2957C49.0569 12.9575 48.1188 10.5192 46.1359 10.5068L19.0578 10.3386C17.1663 10.3268 16.1582 12.5646 17.4204 13.9734Z" stroke="white" stroke-width="2.54352"/>
</g>
<defs>
<filter id="filter0_d_1077_4376" x="1.71661e-05" y="-1.95503e-05" width="65.1664" height="58.2513" filterUnits="userSpaceOnUse" color-interpolation-filters="sRGB">
<feFlood flood-opacity="0" result="BackgroundImageFix"/>
<feColorMatrix in="SourceAlpha" type="matrix" values="0 0 0 0 0 0 0 0 0 0 0 0 0 0 0 0 0 0 127 0" result="hardAlpha"/>
<feOffset dy="6.51861"/>
<feGaussianBlur stdDeviation="7.7927"/>
<feComposite in2="hardAlpha" operator="out"/>
<feColorMatrix type="matrix" values="0 0 0 0 0 0 0 0 0 0 0 0 0 0 0 0 0 0 0.25 0"/>
<feBlend mode="normal" in2="BackgroundImageFix" result="effect1_dropShadow_1077_4376"/>
<feBlend mode="normal" in="SourceGraphic" in2="effect1_dropShadow_1077_4376" result="shape"/>
</filter>
</defs>
</svg>
