<svg width="14" height="15" viewBox="0 0 14 15" fill="none" xmlns="http://www.w3.org/2000/svg">
<path fill-rule="evenodd" clip-rule="evenodd" d="M7.00004 0.333374C4.14657 0.333374 1.83337 2.64657 1.83337 5.50004V5.96944C1.83337 6.43406 1.69584 6.88828 1.43812 7.27486L0.672386 8.42346C-0.216344 9.75656 0.462127 11.5686 2.00786 11.9901C2.5116 12.1275 3.01959 12.2437 3.53053 12.3388L3.5318 12.3422C4.04446 13.7101 5.41467 14.6667 6.99999 14.6667C8.58532 14.6667 9.95553 13.7101 10.4682 12.3422L10.4695 12.3388C10.9804 12.2437 11.4884 12.1275 11.9922 11.9901C13.5379 11.5686 14.2164 9.75656 13.3277 8.42346L12.562 7.27486C12.3042 6.88828 12.1667 6.43406 12.1667 5.96944V5.50004C12.1667 2.64657 9.85351 0.333374 7.00004 0.333374ZM9.25098 12.5247C7.75567 12.7033 6.24431 12.7033 4.749 12.5247C5.22297 13.2057 6.04735 13.6667 6.99999 13.6667C7.95263 13.6667 8.77701 13.2057 9.25098 12.5247ZM2.83337 5.50004C2.83337 3.19885 4.69885 1.33337 7.00004 1.33337C9.30122 1.33337 11.1667 3.19885 11.1667 5.50004V5.96944C11.1667 6.63148 11.3627 7.27871 11.7299 7.82956L12.4956 8.97816C13.0058 9.74334 12.6163 10.7834 11.7291 11.0254C8.63293 11.8698 5.36714 11.8698 2.27097 11.0254C1.38375 10.7834 0.994321 9.74334 1.50444 8.97816L2.27017 7.82956C2.63741 7.27871 2.83337 6.63148 2.83337 5.96944V5.50004Z" fill="currentColor"/>
</svg>
