<svg width="16" height="14" viewBox="0 0 16 14" fill="none" xmlns="http://www.w3.org/2000/svg">
<path d="M5.9745 12.1073L6.43881 11.5183L5.9745 12.1073ZM8.00001 3.16709L7.45964 3.68719C7.60103 3.83408 7.79613 3.91709 8.00001 3.91709C8.20389 3.91709 8.39899 3.83408 8.54038 3.68719L8.00001 3.16709ZM10.0255 12.1073L10.4898 12.6962L10.0255 12.1073ZM5.9745 12.1073L6.43881 11.5183C5.41354 10.71 4.33636 9.95245 3.47913 8.98717C2.64761 8.05085 2.08334 6.97831 2.08334 5.5914H1.33334H0.583344C0.583344 7.44644 1.35889 8.85867 2.35756 9.98321C3.33052 11.0788 4.57392 11.9582 5.51018 12.6962L5.9745 12.1073ZM1.33334 5.5914H2.08334C2.08334 4.25102 2.84036 3.13995 3.85351 2.67683C4.81938 2.23533 6.15164 2.32823 7.45964 3.68719L8.00001 3.16709L8.54038 2.64699C6.84848 0.889172 4.84741 0.573243 3.22992 1.3126C1.65971 2.03035 0.583344 3.68982 0.583344 5.5914H1.33334ZM5.9745 12.1073L5.51018 12.6962C5.84938 12.9636 6.22941 13.2618 6.61843 13.4891C7.0072 13.7163 7.47628 13.9167 8.00001 13.9167V13.1667V12.4167C7.85708 12.4167 7.65948 12.3601 7.37522 12.194C7.09119 12.0281 6.7918 11.7965 6.43881 11.5183L5.9745 12.1073ZM10.0255 12.1073L10.4898 12.6962C11.4261 11.9582 12.6695 11.0788 13.6425 9.98321C14.6411 8.85867 15.4167 7.44644 15.4167 5.5914H14.6667H13.9167C13.9167 6.97831 13.3524 8.05085 12.5209 8.98717C11.6637 9.95245 10.5865 10.71 9.56121 11.5183L10.0255 12.1073ZM14.6667 5.5914H15.4167C15.4167 3.68982 14.3403 2.03035 12.7701 1.3126C11.1526 0.573243 9.15154 0.889172 7.45964 2.64699L8.00001 3.16709L8.54038 3.68719C9.84837 2.32823 11.1806 2.23533 12.1465 2.67683C13.1597 3.13995 13.9167 4.25102 13.9167 5.5914H14.6667ZM10.0255 12.1073L9.56121 11.5183C9.20822 11.7965 8.90883 12.0281 8.6248 12.194C8.34053 12.3601 8.14294 12.4167 8.00001 12.4167V13.1667V13.9167C8.52374 13.9167 8.99282 13.7163 9.38159 13.4891C9.77061 13.2618 10.1506 12.9636 10.4898 12.6962L10.0255 12.1073Z" fill="currentColor"/>
</svg>
