<svg width="16" height="16" viewBox="0 0 16 16" fill="none" xmlns="http://www.w3.org/2000/svg">
<path d="M11.2133 10.3234C10.9701 10.2011 10.6737 10.296 10.5466 10.5367C10.4292 10.7819 10.5263 11.0762 10.7666 11.2034C11.3533 11.5034 11.6866 11.87 11.6866 12.2234C11.6866 12.9767 10.1133 13.8167 8.00665 13.8167C5.89998 13.8167 4.31998 12.9834 4.31998 12.25C4.31998 11.9034 4.65331 11.53 5.23998 11.23C5.41591 11.1595 5.53683 10.9955 5.55224 10.8066C5.56766 10.6177 5.47491 10.4363 5.31274 10.3382C5.15056 10.24 4.94685 10.242 4.78665 10.3434C3.97724 10.6484 3.41296 11.3887 3.33331 12.25C3.33331 13.73 5.33331 14.8434 7.99998 14.8434C10.6666 14.8434 12.6666 13.73 12.6666 12.25C12.5943 11.3813 12.0288 10.6315 11.2133 10.3234Z" fill="currentColor"/>
<path fill-rule="evenodd" clip-rule="evenodd" d="M7.49998 12.5434V9.66336C5.30458 9.39886 3.695 7.47023 3.82749 5.26292C3.95998 3.05562 5.7887 1.33337 7.99998 1.33337C10.2113 1.33337 12.04 3.05562 12.1725 5.26292C12.305 7.47023 10.6954 9.39886 8.49998 9.66336V12.5434C8.49998 12.8195 8.27612 13.0434 7.99998 13.0434C7.72384 13.0434 7.49998 12.8195 7.49998 12.5434ZM10.9495 4.29413C10.4545 3.10275 9.29008 2.32733 7.99998 2.33003C6.24524 2.3337 4.82365 3.75528 4.81998 5.51003C4.81729 6.80012 5.5927 7.96456 6.78408 8.45951C7.97546 8.95445 9.34772 8.68224 10.26 7.77C11.1722 6.85776 11.4444 5.48551 10.9495 4.29413Z" fill="currentColor"/>
<path d="M6.39331 6.25003C6.66946 6.25003 6.89331 6.02617 6.89331 5.75003C6.89331 4.98419 7.51415 4.36336 8.27998 4.36336C8.55612 4.36336 8.77998 4.1395 8.77998 3.86336C8.77998 3.58722 8.55612 3.36336 8.27998 3.36336C7.64523 3.36513 7.03718 3.61898 6.58959 4.06906C6.142 4.51915 5.89154 5.12861 5.89331 5.76336C5.89507 5.89421 5.94874 6.01899 6.04251 6.11026C6.13628 6.20153 6.26247 6.25181 6.39331 6.25003Z" fill="currentColor"/>
</svg>
