<svg width="50" height="50" viewBox="0 0 50 50" fill="none" xmlns="http://www.w3.org/2000/svg">
<rect width="50" height="50" rx="11" fill="white"/>
<path d="M37 25H34.3335M34.3335 25C34.3335 27.4756 33.3507 29.8491 31.6002 31.5996C29.8497 33.3501 27.4756 34.3335 25 34.3335M34.3335 25C34.3335 22.5244 33.3507 20.1496 31.6002 18.3992C29.8497 16.6487 27.4756 15.6665 25 15.6665M25 13V15.6665M25 15.6665C22.5246 15.6665 20.1506 16.6486 18.4002 18.399C16.6499 20.1493 15.6665 22.5233 15.6665 24.9987C15.6665 27.4741 16.6499 29.8481 18.4002 31.5985C20.1506 33.3489 22.5246 34.3335 25 34.3335M13 25H15.6665M25 37V34.3335" stroke="currentColor" stroke-width="1.5" stroke-miterlimit="10" stroke-linecap="round"/>
<path d="M25.0003 30.3333C26.4147 30.3333 27.7712 29.7715 28.7713 28.7713C29.7715 27.7712 30.3333 26.4147 30.3333 25.0003C30.3333 23.5859 29.7715 22.2294 28.7713 21.2293C27.7712 20.2291 26.4147 19.6672 25.0003 19.6672C23.5859 19.6672 22.2294 20.2291 21.2293 21.2293C20.2291 22.2294 19.6672 23.5859 19.6672 25.0003C19.6672 26.4147 20.2291 27.7712 21.2293 28.7713C22.2294 29.7715 23.5859 30.3333 25.0003 30.3333Z" stroke="currentColor" stroke-width="1.5" stroke-miterlimit="10" stroke-linecap="round"/>
</svg>
