<svg viewBox="0 0 58 68" fill="none" xmlns="http://www.w3.org/2000/svg">
<g filter="url(#filter0_d_1077_4377)">
<path d="M28.7129 25.844C27.7446 25.844 26.8159 25.4593 26.1312 24.7746C25.4465 24.0899 25.0619 23.1612 25.0619 22.1929C25.0619 21.2246 25.4465 20.2959 26.1312 19.6112C26.8159 18.9265 27.7446 18.5419 28.7129 18.5419C29.6812 18.5419 30.6099 18.9265 31.2946 19.6112C31.9793 20.2959 32.3639 21.2246 32.3639 22.1929C32.3639 22.6724 32.2695 23.1471 32.086 23.5901C31.9025 24.0331 31.6336 24.4356 31.2946 24.7746C30.9556 25.1136 30.5531 25.3826 30.1101 25.566C29.6671 25.7495 29.1924 25.844 28.7129 25.844ZM28.7129 11.97C26.0016 11.97 23.4014 13.0471 21.4842 14.9642C19.567 16.8814 18.49 19.4816 18.49 22.1929C18.49 29.8601 28.7129 41.1783 28.7129 41.1783C28.7129 41.1783 38.9358 29.8601 38.9358 22.1929C38.9358 19.4816 37.8588 16.8814 35.9416 14.9642C34.0244 13.0471 31.4242 11.97 28.7129 11.97Z" fill="#145DB8"/>
<path d="M28.7126 10.7005C31.7608 10.7005 34.6843 11.9113 36.8396 14.0667C38.9947 16.2219 40.2057 19.1447 40.2058 22.1927C40.2058 24.3664 39.4888 26.7013 38.4978 28.9134C37.4994 31.142 36.1785 33.3413 34.8767 35.2708C33.5725 37.2038 32.2714 38.8891 31.2966 40.0901C30.8087 40.6913 30.4007 41.1734 30.114 41.5061C29.9709 41.6722 29.8581 41.8015 29.78 41.8899C29.741 41.9341 29.7101 41.9681 29.6892 41.9915C29.6788 42.0032 29.6705 42.0125 29.6648 42.0188C29.662 42.0219 29.6596 42.0249 29.658 42.0266L29.656 42.0286V42.0296C29.6557 42.0297 29.6466 42.0216 28.7126 41.178L29.655 42.0296L28.7126 43.0735L27.7703 42.0296L27.7673 42.0266C27.7657 42.0248 27.7633 42.022 27.7605 42.0188C27.7548 42.0125 27.7465 42.0031 27.7361 41.9915C27.7152 41.9681 27.6851 41.9339 27.6462 41.8899C27.5681 41.8015 27.4546 41.6725 27.3113 41.5061C27.0246 41.1734 26.6176 40.6913 26.1296 40.0901C25.1549 38.8891 23.8528 37.2039 22.5486 35.2708C21.2468 33.3414 19.9269 31.1419 18.9285 28.9134C17.9375 26.7013 17.2205 24.3664 17.2205 22.1927C17.2205 19.1446 18.4314 16.222 20.5867 14.0667C22.7419 11.9114 25.6646 10.7005 28.7126 10.7005ZM28.7126 19.8118C28.0812 19.8119 27.4755 20.0626 27.0291 20.5091C26.5826 20.9555 26.3319 21.5613 26.3318 22.1927C26.3318 22.824 26.5827 23.4297 27.0291 23.8763C27.4755 24.3227 28.0812 24.5734 28.7126 24.5735C29.0252 24.5735 29.335 24.5124 29.6238 24.3929C29.9127 24.2732 30.1751 24.0974 30.3962 23.8763C30.6173 23.6552 30.7932 23.3927 30.9128 23.1038C31.0324 22.815 31.0935 22.5052 31.0935 22.1927C31.0934 21.5613 30.8427 20.9555 30.3962 20.5091C29.9497 20.0627 29.344 19.8118 28.7126 19.8118Z" stroke="white" stroke-width="2.54"/>
</g>
<defs>
<filter id="filter0_d_1077_4377" x="-1.81198e-05" y="8.10623e-06" width="57.4258" height="67.4377" filterUnits="userSpaceOnUse" color-interpolation-filters="sRGB">
<feFlood flood-opacity="0" result="BackgroundImageFix"/>
<feColorMatrix in="SourceAlpha" type="matrix" values="0 0 0 0 0 0 0 0 0 0 0 0 0 0 0 0 0 0 127 0" result="hardAlpha"/>
<feOffset dy="6.52"/>
<feGaussianBlur stdDeviation="7.975"/>
<feComposite in2="hardAlpha" operator="out"/>
<feColorMatrix type="matrix" values="0 0 0 0 0 0 0 0 0 0 0 0 0 0 0 0 0 0 0.16 0"/>
<feBlend mode="normal" in2="BackgroundImageFix" result="effect1_dropShadow_1077_4377"/>
<feBlend mode="normal" in="SourceGraphic" in2="effect1_dropShadow_1077_4377" result="shape"/>
</filter>
</defs>
</svg>
