<svg width="40" height="18" viewBox="0 0 40 18" fill="none" xmlns="http://www.w3.org/2000/svg">
<path d="M7.30869 2.87523C6.83994 3.42992 6.08978 3.86758 5.3397 3.805C5.24595 3.055 5.61314 2.25797 6.04291 1.7657C6.51166 1.19539 7.33212 0.789062 7.99627 0.757812C8.07439 1.53914 7.76963 2.30484 7.30869 2.87523ZM7.98853 3.95352C6.90244 3.89102 5.97267 4.5707 5.45697 4.5707C4.93353 4.5707 4.14431 3.98477 3.28486 4.00039C2.16759 4.01602 1.12837 4.64883 0.557984 5.6568C-0.614047 7.67266 0.253297 10.6574 1.38619 12.2982C1.94095 13.1108 2.60509 14.0015 3.48017 13.9702C4.30845 13.939 4.63658 13.4312 5.63673 13.4312C6.64463 13.4312 6.93377 13.9702 7.80884 13.9546C8.71517 13.939 9.28556 13.1421 9.84033 12.3295C10.4731 11.4075 10.731 10.5089 10.7467 10.462C10.731 10.4464 8.9965 9.78234 8.98088 7.78203C8.96525 6.11 10.3482 5.31305 10.4107 5.26617C9.62931 4.10977 8.41048 3.98477 7.98853 3.95352ZM14.2627 1.68758V13.8688H16.1535V9.70422H18.771C21.1619 9.70422 22.8418 8.06344 22.8418 5.68813C22.8418 3.31289 21.1931 1.68766 18.8335 1.68766L14.2627 1.68758ZM16.1535 3.28156H18.3335C19.9743 3.28156 20.9119 4.15664 20.9119 5.69586C20.9119 7.23508 19.9743 8.11805 18.3256 8.11805H16.1535V3.28156ZM26.2952 13.9624C27.4829 13.9624 28.5845 13.3609 29.0846 12.4076H29.1237V13.8687H30.8739V7.80547C30.8739 6.0475 29.4675 4.91453 27.3031 4.91453C25.2951 4.91453 23.8106 6.06313 23.7559 7.64141H25.4592C25.5999 6.89133 26.2952 6.39906 27.2485 6.39906C28.4049 6.39906 29.0534 6.9382 29.0534 7.93055V8.60242L26.6937 8.74305C24.4981 8.87586 23.3106 9.77445 23.3106 11.3372C23.3106 12.9155 24.5372 13.9624 26.2952 13.9624ZM26.8031 12.517C25.7952 12.517 25.1545 12.0326 25.1545 11.2902C25.1545 10.5246 25.7717 10.0792 26.9516 10.0089L29.0534 9.87609V10.5636C29.0534 11.7044 28.0845 12.517 26.8031 12.517M33.2102 17.1816C35.0542 17.1816 35.9214 16.4784 36.6793 14.3453L39.9999 5.03172H38.0778L35.851 12.2278H35.812L33.5852 5.03172H31.6084L34.8118 13.8999L34.6399 14.4391C34.3509 15.3532 33.882 15.7048 33.046 15.7048C32.8976 15.7048 32.6085 15.6892 32.4913 15.6736V17.1347C32.6006 17.1659 33.0694 17.1816 33.2101 17.1816" fill="black"/>
</svg>
