<svg viewBox="0 0 24 24" fill="none" xmlns="http://www.w3.org/2000/svg" id="Pen--Streamline-Solar-Ar" height="24" width="24">
  <desc>
    Pen Streamline Icon: https://streamlinehq.com
  </desc>
  <path d="m14.3601 4.07866 0.9268 -0.92688c1.5357 -1.53571 4.0256 -1.53571 5.5613 0 1.5357 1.5357 1.5357 4.02557 0 5.56128l-0.9269 0.92687m-5.5612 -5.56127s0.1158 1.96962 1.8537 3.70752c1.7379 1.73789 3.7075 1.85375 3.7075 1.85375m-5.5612 -5.56127L5.83882 12.5999c-0.57716 0.5772 -0.86574 0.8657 -1.11392 1.1839 -0.29277 0.3754 -0.54376 0.7815 -0.74856 1.2112 -0.17361 0.3643 -0.30266 0.7515 -0.56078 1.5258l-1.09375 3.2813M19.9213 9.63993l-8.5212 8.52127c-0.5772 0.5771 -0.8657 0.8657 -1.1839 1.1139 -0.37538 0.2928 -0.78151 0.5438 -1.21122 0.7486 -0.36428 0.1736 -0.75146 0.3026 -1.5258 0.5607l-3.28126 1.0938m0 0 -0.80208 0.2674c-0.38106 0.127 -0.80118 0.0278 -1.08521 -0.2562 -0.28403 -0.2841 -0.3832 -0.7042 -0.25618 -1.0852l0.26736 -0.8021m1.87611 1.8761 -1.87611 -1.8761" stroke="currentColor" stroke-width="1.5"></path>
</svg>
