<svg width="21" height="21" viewBox="0 0 21 21" fill="none" xmlns="http://www.w3.org/2000/svg">
<path d="M10.0711 17.5205C9.73408 17.5318 9.40262 17.613 9.15022 17.7656L6.12092 19.5654C3.95353 20.8456 2.63552 19.8954 3.20588 17.4365L3.92854 14.3184C4.04252 13.71 3.80181 12.886 3.38361 12.4678L0.861153 9.94531C-0.62162 8.46243 -0.140237 6.96722 1.92561 6.6123L5.15803 6.08008C5.70282 5.9913 6.34869 5.50971 6.58967 5.01562L8.37678 1.44043C8.8474 0.51152 9.45707 0.0316004 10.0711 0V17.5205Z" fill="currentColor"/>
<path d="M10.0711 0.00165274C10.7303 -0.0320948 11.395 0.450936 11.9002 1.45478L13.6873 5.029C13.9281 5.52331 14.5749 5.99205 15.1199 6.09345L18.3524 6.62568C20.418 6.96801 20.8996 8.46415 19.4168 9.95966L16.8943 12.4821C16.4761 12.9004 16.2354 13.7243 16.3748 14.32L17.0975 17.4382C17.6676 19.8967 16.3487 20.8598 14.1815 19.5671L11.1522 17.7673C10.8597 17.5905 10.4616 17.5092 10.0711 17.5222V0.00165274Z" fill="currentColor"/>
</svg>
