<svg width="40" height="40" viewBox="0 0 40 40" fill="none" xmlns="http://www.w3.org/2000/svg">
<path d="M1.6 7.43994C0.71652 7.43994 0 8.15626 0 9.03994V30.9599C0 31.8436 0.71688 32.5599 1.6 32.5599H38.4C39.2835 32.5599 40 31.8436 40 30.9599V9.03994C40 8.1563 39.2831 7.43994 38.4 7.43994H1.6ZM23.89 14.9262C24.8635 14.9262 25.6437 15.1412 26.1412 15.3412L25.8012 17.4799L25.5762 17.3662C25.1128 17.1662 24.5174 16.9738 23.6962 16.9874C22.7132 16.9874 22.2588 17.4259 22.2588 17.8362C22.253 18.2985 22.7898 18.6034 23.6675 19.0599C25.1162 19.7643 25.7857 20.6184 25.7763 21.7412C25.7568 23.7899 24.0433 25.1137 21.4038 25.1137C20.2776 25.1013 19.1927 24.8629 18.6062 24.5874L18.9588 22.3774L19.2825 22.5349C20.1072 22.9034 20.6412 23.0525 21.6462 23.0525C22.368 23.0525 23.1426 22.7503 23.1488 22.0887C23.1534 21.6567 22.825 21.3487 21.8475 20.8649C20.895 20.3928 19.6323 19.6019 19.6463 18.1837C19.6612 16.2653 21.4088 14.9262 23.89 14.9262ZM3.53748 15.2399H7.59124C8.13712 15.2606 8.57784 15.4363 8.73 16.0287L9.60376 20.5387C9.60388 20.5391 9.6036 20.5407 9.60376 20.5412L9.86624 21.8925L12.3275 15.2399H14.99L11.0325 24.9775L8.37248 24.9799L6.255 17.1224C7.51492 17.7899 8.58756 18.5622 9.20876 19.6249C9.0486 19.2887 8.83756 18.9091 8.56752 18.5349C8.25304 18.0993 7.57388 17.5367 7.29 17.2974C6.3008 16.4635 4.9574 15.7901 3.50624 15.4337L3.53748 15.2399ZM16.0488 15.2512H18.6525L17.0237 24.9737H14.42L16.0488 15.2512ZM30.755 15.2512H32.7275L34.7925 24.9737H32.425C32.425 24.9737 32.1901 23.8567 32.1138 23.5162C31.7416 23.5162 29.1391 23.5125 28.8462 23.5125C28.7472 23.7757 28.3088 24.9737 28.3088 24.9737H25.63L29.4188 16.0587C29.687 15.4252 30.1442 15.2512 30.755 15.2512ZM30.9488 17.8662C30.8206 18.2278 30.5976 18.8118 30.6125 18.7862C30.6125 18.7862 29.811 20.9238 29.6013 21.4787L31.7075 21.4774C31.5118 20.5503 31.316 19.6233 31.12 18.6963L30.9488 17.8663V17.8662Z" fill="#145DB8"/>
</svg>
