<svg viewBox="0 0 178 181" fill="none" xmlns="http://www.w3.org/2000/svg">
<path fill-rule="evenodd" clip-rule="evenodd" d="M60.4505 100.25C53.6071 103.378 48.5938 110.818 48.5938 119.691C48.5938 128.755 52.303 135.741 57.6204 141.729C62.003 146.664 67.3082 150.754 72.4821 154.743C73.711 155.69 74.9325 156.632 76.1324 157.578C78.3023 159.288 80.2379 160.79 82.1036 161.88C83.9703 162.971 85.4729 163.469 86.75 163.469C88.0271 163.469 89.5297 162.971 91.3964 161.88C93.262 160.79 95.1977 159.288 97.3676 157.578C98.5675 156.632 99.789 155.69 101.018 154.743C106.192 150.754 111.497 146.664 115.88 141.729C121.197 135.741 124.906 128.755 124.906 119.691C124.906 110.818 119.893 103.378 113.05 100.25C106.401 97.2108 97.4681 98.0156 88.979 106.836C88.3958 107.441 87.591 107.784 86.75 107.784C85.909 107.784 85.1042 107.441 84.521 106.836C76.0319 98.0156 67.0988 97.2108 60.4505 100.25ZM86.75 100.393C77.2128 91.8597 66.5332 90.6661 57.8781 94.6223C48.7369 98.8008 42.4062 108.503 42.4062 119.691C42.4062 130.686 46.987 139.074 52.994 145.838C57.8044 151.254 63.6922 155.788 68.8922 159.792C70.0709 160.699 71.2143 161.58 72.3019 162.437C74.4148 164.103 76.6831 165.879 78.9819 167.222C81.2797 168.565 83.9021 169.656 86.75 169.656C89.5979 169.656 92.2203 168.565 94.5181 167.222C96.8169 165.879 99.0852 164.103 101.198 162.437C102.286 161.58 103.429 160.699 104.608 159.792C109.808 155.788 115.696 151.254 120.506 145.838C126.513 139.074 131.094 130.686 131.094 119.691C131.094 108.503 124.763 98.8008 115.622 94.6223C106.967 90.6661 96.2872 91.8597 86.75 100.393Z" fill="currentColor"/>
<path fill-rule="evenodd" clip-rule="evenodd" d="M115.123 13.2726C110.146 15.5475 106.5 20.9587 106.5 27.4113C106.5 34.0035 109.198 39.0847 113.065 43.4393C116.252 47.0283 120.111 50.0029 123.873 52.9038C124.767 53.5928 125.655 54.2777 126.528 54.9656C128.106 56.2097 129.514 57.3016 130.871 58.0944C132.228 58.8878 133.321 59.25 134.25 59.25C135.179 59.25 136.272 58.8878 137.629 58.0944C138.986 57.3016 140.394 56.2097 141.972 54.9656C142.845 54.2777 143.733 53.5928 144.627 52.9038C148.389 50.0029 152.248 47.0283 155.435 43.4393C159.302 39.0847 162 34.0035 162 27.4113C162 20.9587 158.354 15.5475 153.377 13.2726C148.542 11.0624 142.045 11.6477 135.871 18.0622C135.447 18.5029 134.862 18.7519 134.25 18.7519C133.638 18.7519 133.053 18.5029 132.629 18.0622C126.455 11.6477 119.958 11.0624 115.123 13.2726ZM134.25 13.3764C127.314 7.1707 119.547 6.30259 113.252 9.17986C106.604 12.2187 102 19.2751 102 27.4113C102 35.4079 105.331 41.5081 109.7 46.4274C113.199 50.3668 117.481 53.6638 121.262 56.5757C122.12 57.2358 122.951 57.8761 123.742 58.4996C125.279 59.711 126.929 61.0028 128.6 61.9797C130.272 62.9562 132.179 63.75 134.25 63.75C136.321 63.75 138.228 62.9562 139.9 61.9797C141.571 61.0028 143.221 59.711 144.758 58.4996C145.549 57.8761 146.38 57.2358 147.238 56.5757C151.019 53.6638 155.301 50.3668 158.8 46.4274C163.169 41.5081 166.5 35.4079 166.5 27.4113C166.5 19.2751 161.896 12.2187 155.248 9.17986C148.953 6.30259 141.186 7.1707 134.25 13.3764Z" fill="currentColor"/>
<path fill-rule="evenodd" clip-rule="evenodd" d="M13.1392 53.1388C9.3373 54.8767 6.55208 59.0102 6.55208 63.9392C6.55208 68.9749 8.61279 72.8564 11.5669 76.1828C14.0017 78.9245 16.949 81.1967 19.8234 83.4127C20.5061 83.939 21.1847 84.4622 21.8514 84.9877C23.0568 85.938 24.1322 86.7721 25.1687 87.3778C26.2057 87.9838 27.0405 88.2605 27.75 88.2605C28.4595 88.2605 29.2943 87.9838 30.3313 87.3778C31.3678 86.7721 32.4432 85.938 33.6486 84.9877C34.3153 84.4622 34.9939 83.939 35.6766 83.4127C38.551 81.1967 41.4983 78.9245 43.9331 76.1828C46.8872 72.8564 48.9479 68.9749 48.9479 63.9392C48.9479 59.0102 46.1627 54.8767 42.3608 53.1388C38.6673 51.4505 33.7045 51.8976 28.9883 56.7976C28.6643 57.1342 28.2172 57.3244 27.75 57.3244C27.2828 57.3244 26.8357 57.1342 26.5117 56.7976C21.7955 51.8976 16.8327 51.4505 13.1392 53.1388ZM27.75 53.2182C22.4515 48.4777 16.5185 47.8145 11.7101 50.0125C6.63163 52.3338 3.11458 57.7241 3.11458 63.9392C3.11458 70.0477 5.65947 74.7077 8.99664 78.4654C11.6691 81.4747 14.9401 83.9933 17.829 86.2176C18.4838 86.7219 19.1191 87.211 19.7232 87.6873C20.8971 88.6126 22.1573 89.5994 23.4344 90.3457C24.7109 91.0916 26.1678 91.698 27.75 91.698C29.3322 91.698 30.7891 91.0916 32.0656 90.3457C33.3427 89.5994 34.6029 88.6126 35.7767 87.6873C36.3809 87.211 37.0162 86.7219 37.671 86.2176C40.5599 83.9933 43.8309 81.4747 46.5034 78.4654C49.8405 74.7077 52.3854 70.0477 52.3854 63.9392C52.3854 57.7241 48.8684 52.3338 43.7899 50.0125C38.9815 47.8145 33.0485 48.4777 27.75 53.2182Z" fill="currentColor"/>
<rect x="161.25" y="96" width="10" height="7" rx="3.5" transform="rotate(-90 161.25 96)" fill="currentColor"/>
<rect x="167.75" y="95.5" width="10" height="7" rx="3.5" fill="currentColor"/>
<rect x="168.25" y="102" width="10" height="7" rx="3.5" transform="rotate(90 168.25 102)" fill="currentColor"/>
<rect x="161.75" y="102.5" width="10" height="7" rx="3.5" transform="rotate(180 161.75 102.5)" fill="currentColor"/>
<rect x="51.75" y="27" width="10" height="7" rx="3.5" transform="rotate(-90 51.75 27)" fill="currentColor"/>
<rect x="58.25" y="26.5" width="10" height="7" rx="3.5" fill="currentColor"/>
<rect x="58.75" y="33" width="10" height="7" rx="3.5" transform="rotate(90 58.75 33)" fill="currentColor"/>
<rect x="52.25" y="33.5" width="10" height="7" rx="3.5" transform="rotate(180 52.25 33.5)" fill="currentColor"/>
<rect x="11.75" y="136" width="10" height="7" rx="3.5" transform="rotate(-90 11.75 136)" fill="currentColor"/>
<rect x="18.25" y="135.5" width="10" height="7" rx="3.5" fill="currentColor"/>
<rect x="18.75" y="142" width="10" height="7" rx="3.5" transform="rotate(90 18.75 142)" fill="currentColor"/>
<rect x="12.25" y="142.5" width="10" height="7" rx="3.5" transform="rotate(180 12.25 142.5)" fill="currentColor"/>
</svg>
