<svg width="17" height="15" viewBox="0 0 17 15" fill="none" xmlns="http://www.w3.org/2000/svg">
<path d="M2.41202 14.2386H14.5883C16.0583 14.2386 16.8076 13.5035 16.8076 12.0477V4.64831C16.8076 3.1925 16.0583 2.4646 14.5883 2.4646H12.9347C12.3835 2.4646 12.214 2.35152 11.8959 1.99812L11.3233 1.36189C10.9771 0.973511 10.6168 0.76123 9.88163 0.76123H7.06892C6.34101 0.76123 5.98038 0.973511 5.62728 1.36189L5.05467 1.99812C4.74379 2.34429 4.56709 2.4646 4.01588 2.4646H2.41172C0.941741 2.4646 0.192429 3.1925 0.192429 4.64831V12.0477C0.192429 13.5035 0.942043 14.2386 2.41202 14.2386ZM2.43283 13.1006C1.73327 13.1006 1.33042 12.7261 1.33042 11.991V4.71193C1.33042 3.97679 1.73327 3.60229 2.43283 3.60229H4.29842C4.93466 3.60229 5.27388 3.48228 5.62728 3.08666L6.18542 2.4646C6.58827 2.0123 6.79331 1.89922 7.42231 1.89922H9.52823C10.1572 1.89922 10.3623 2.0123 10.7651 2.4646L11.3233 3.08636C11.6767 3.48228 12.0159 3.60229 12.6521 3.60229H14.5672C15.2667 3.60229 15.6699 3.97679 15.6699 4.71193V11.991C15.6699 12.7261 15.267 13.1006 14.5672 13.1006H2.43283ZM8.49668 11.9771C9.00439 11.9785 9.50737 11.8795 9.97661 11.6856C10.4459 11.4918 10.8721 11.207 11.2308 10.8476C11.5894 10.4883 11.8734 10.0615 12.0664 9.5919C12.2594 9.12229 12.3575 8.61913 12.3551 8.11143C12.3551 5.9627 10.6448 4.24576 8.49638 4.24576C6.36212 4.24576 4.64488 5.9627 4.64488 8.11143C4.64488 10.2596 6.36212 11.9771 8.49638 11.9771M13.5775 6.38665C14.0582 6.38665 14.4538 5.99828 14.4538 5.51763C14.4538 5.28523 14.3615 5.06235 14.1971 4.89802C14.0328 4.73369 13.8099 4.64137 13.5775 4.64137C13.3451 4.64137 13.1223 4.73369 12.9579 4.89802C12.7936 5.06235 12.7013 5.28523 12.7013 5.51763C12.7013 5.99828 13.0969 6.38665 13.5775 6.38665ZM8.49668 10.903C6.96308 10.903 5.71231 9.6592 5.71231 8.11143C5.71231 6.56365 6.95614 5.32013 8.49668 5.32013C8.86338 5.31969 9.22656 5.39159 9.56543 5.53171C9.9043 5.67182 10.2122 5.87741 10.4715 6.13669C10.7308 6.39597 10.9364 6.70385 11.0766 7.0427C11.2167 7.38156 11.2887 7.74473 11.2883 8.11143C11.2887 8.47815 11.2168 8.84136 11.0767 9.18025C10.9365 9.51914 10.7309 9.82705 10.4716 10.0864C10.2123 10.3457 9.90439 10.5513 9.5655 10.6914C9.22661 10.8316 8.8634 10.9035 8.49668 10.903Z" fill="currentColor"/>
</svg>
