<svg width="24" height="19" viewBox="0 0 24 19" fill="none" xmlns="http://www.w3.org/2000/svg">
<g clip-path="url(#clip0_8118_4086)">
<path d="M4.36311 18.5633V17.3285C4.36311 16.8551 4.07492 16.5465 3.58095 16.5465C3.33401 16.5465 3.06645 16.6288 2.8812 16.8964C2.7372 16.6699 2.53142 16.5465 2.2227 16.5465C2.01683 16.5465 1.81114 16.6082 1.64642 16.8346V16.5876H1.21423V18.5633H1.64642V17.4725C1.64642 17.1228 1.83167 16.958 2.11986 16.958C2.40786 16.958 2.55205 17.1433 2.55205 17.4725V18.5633H2.98423V17.4725C2.98423 17.1228 3.18992 16.958 3.45748 16.958C3.74567 16.958 3.88967 17.1433 3.88967 17.4725V18.5633H4.36311ZM10.7635 16.5876H10.0639V15.9908H9.63167V16.5876H9.24064V16.9786H9.63158V17.8842C9.63158 18.337 9.81683 18.6045 10.3108 18.6045C10.496 18.6045 10.7017 18.5428 10.8459 18.4605L10.7224 18.09C10.5989 18.1723 10.4549 18.1929 10.352 18.1929C10.1462 18.1929 10.0639 18.0694 10.0639 17.8636V16.9786H10.7635V16.5876ZM14.4269 16.5464C14.18 16.5464 14.0153 16.6699 13.9124 16.8346V16.5876H13.4802V18.5633H13.9124V17.452C13.9124 17.1228 14.0564 16.9375 14.324 16.9375C14.4063 16.9375 14.5092 16.9581 14.5915 16.9787L14.715 16.5671C14.6327 16.5465 14.5092 16.5465 14.4269 16.5465M8.89076 16.7524C8.68489 16.6083 8.3968 16.5466 8.08808 16.5466C7.5942 16.5466 7.26495 16.7935 7.26495 17.1845C7.26495 17.5139 7.51189 17.699 7.94408 17.7608L8.14986 17.7814C8.37626 17.8225 8.49973 17.8843 8.49973 17.9872C8.49973 18.1312 8.33511 18.2342 8.04692 18.2342C7.75873 18.2342 7.53242 18.1312 7.38833 18.0284L7.18255 18.3576C7.40895 18.5223 7.71767 18.6046 8.0263 18.6046C8.60258 18.6046 8.93192 18.3371 8.93192 17.9666C8.93192 17.6167 8.66436 17.4315 8.2527 17.3698L8.04692 17.3492C7.86167 17.3285 7.71767 17.2875 7.71767 17.164C7.71767 17.0199 7.86167 16.9376 8.08808 16.9376C8.33511 16.9376 8.58205 17.0404 8.70551 17.1022L8.89076 16.7524ZM20.3747 16.5466C20.1276 16.5466 19.963 16.67 19.8601 16.8347V16.5877H19.4279V18.5634H19.8601V17.4521C19.8601 17.1229 20.0042 16.9376 20.2716 16.9376C20.354 16.9376 20.457 16.9582 20.5393 16.9788L20.6628 16.5672C20.5805 16.5466 20.457 16.5466 20.3747 16.5466ZM14.8591 17.5756C14.8591 18.1724 15.2706 18.6046 15.9087 18.6046C16.1968 18.6046 16.4026 18.5429 16.6084 18.3783L16.4026 18.0284C16.238 18.1519 16.0733 18.2135 15.8881 18.2135C15.5382 18.2135 15.2913 17.9666 15.2913 17.5756C15.2913 17.2052 15.5382 16.9581 15.8881 16.9376C16.0733 16.9376 16.238 16.9993 16.4026 17.1229L16.6084 16.773C16.4026 16.6083 16.1968 16.5466 15.9087 16.5466C15.2706 16.5466 14.8591 16.9788 14.8591 17.5756ZM18.8517 17.5756V16.5877H18.4195V16.8347C18.2754 16.6495 18.0696 16.5466 17.8021 16.5466C17.2464 16.5466 16.8142 16.9788 16.8142 17.5756C16.8142 18.1724 17.2464 18.6046 17.8021 18.6046C18.0902 18.6046 18.296 18.5017 18.4195 18.3165V18.5634H18.8517V17.5756ZM17.267 17.5756C17.267 17.2257 17.4934 16.9376 17.8638 16.9376C18.2136 16.9376 18.4607 17.2052 18.4607 17.5756C18.4607 17.9254 18.2136 18.2135 17.8638 18.2135C17.4934 18.1929 17.267 17.9254 17.267 17.5756ZM12.1013 16.5466C11.525 16.5466 11.1134 16.9581 11.1134 17.5756C11.1134 18.193 11.525 18.6046 12.1219 18.6046C12.41 18.6046 12.6981 18.5223 12.9245 18.3371L12.7187 18.0284C12.554 18.1519 12.3483 18.2342 12.1425 18.2342C11.8749 18.2342 11.6074 18.1107 11.5456 17.7607H13.0069V17.5962C13.0275 16.9581 12.6571 16.5466 12.1013 16.5466ZM12.1012 16.917C12.3687 16.917 12.554 17.0817 12.5951 17.3904H11.5661C11.6073 17.1229 11.7925 16.917 12.1012 16.917ZM22.8236 17.5756V15.8057H22.3914V16.8347C22.2473 16.6495 22.0415 16.5466 21.774 16.5466C21.2183 16.5466 20.7861 16.9788 20.7861 17.5756C20.7861 18.1724 21.2183 18.6046 21.774 18.6046C22.0622 18.6046 22.268 18.5017 22.3914 18.3165V18.5634H22.8236V17.5756ZM21.239 17.5756C21.239 17.2257 21.4653 16.9376 21.8358 16.9376C22.1856 16.9376 22.4326 17.2052 22.4326 17.5756C22.4326 17.9254 22.1856 18.2135 21.8358 18.2135C21.4653 18.1929 21.239 17.9254 21.239 17.5756ZM6.79142 17.5756V16.5877H6.35923V16.8347C6.21514 16.6495 6.00936 16.5466 5.7418 16.5466C5.18614 16.5466 4.75395 16.9788 4.75395 17.5756C4.75395 18.1724 5.18614 18.6046 5.7418 18.6046C6.02998 18.6046 6.23576 18.5017 6.35923 18.3165V18.5634H6.79142V17.5756ZM5.18614 17.5756C5.18614 17.2257 5.41255 16.9376 5.78295 16.9376C6.13283 16.9376 6.37986 17.2052 6.37986 17.5756C6.37986 17.9254 6.13283 18.2135 5.78295 18.2135C5.41255 18.1929 5.18614 17.9254 5.18614 17.5756Z" fill="black"/>
<path d="M8.7467 1.58447H15.2295V13.233H8.7467V1.58447Z" fill="#FF5F00"/>
<path d="M9.15834 7.40897C9.15834 5.04225 10.2697 2.943 11.9778 1.58466C10.7225 0.596812 9.13781 0 7.40906 0C3.31341 0 0 3.31341 0 7.40897C0 11.5045 3.31341 14.8179 7.40897 14.8179C9.13772 14.8179 10.7224 14.2211 11.9778 13.2332C10.2697 11.8955 9.15834 9.77569 9.15834 7.40897Z" fill="#EB001B"/>
<path d="M23.9762 7.40897C23.9762 11.5044 20.6628 14.8179 16.5672 14.8179C14.8385 14.8179 13.2538 14.2211 11.9984 13.2332C13.7272 11.8749 14.8179 9.77569 14.8179 7.40897C14.8179 5.04225 13.7065 2.943 11.9984 1.58466C13.2537 0.596812 14.8385 0 16.5672 0C20.6628 0 23.9762 3.33403 23.9762 7.40897Z" fill="#F79E1B"/>
</g>
<defs>
<clipPath id="clip0_8118_4086">
<rect width="24" height="18.6562" fill="white"/>
</clipPath>
</defs>
</svg>
