<svg width="24" height="24" viewBox="0 0 24 24" fill="none" xmlns="http://www.w3.org/2000/svg">
<path fill-rule="evenodd" clip-rule="evenodd" d="M22.2955 6.31083C22.6762 6.474 22.8526 6.91491 22.6894 7.29563L22 7.00019C22.6894 7.29563 22.6895 7.29546 22.6894 7.29563L22.6887 7.29731L22.6876 7.2998L22.6844 7.30716L22.6738 7.33123C22.6648 7.35137 22.652 7.37958 22.6353 7.41527C22.6021 7.48662 22.5534 7.58794 22.4889 7.71435C22.3601 7.967 22.1676 8.32087 21.9086 8.73666C21.483 9.4197 20.8725 10.2778 20.062 11.1304L21.0304 12.0987C21.3233 12.3916 21.3233 12.8665 21.0304 13.1594C20.7375 13.4523 20.2626 13.4523 19.9697 13.1594L18.9691 12.1588C18.3094 12.7115 17.5529 13.2302 16.6951 13.6564L17.6287 15.0912C17.8546 15.4383 17.7563 15.9029 17.4091 16.1288C17.0619 16.3547 16.5973 16.2564 16.3714 15.9092L15.2822 14.2353C14.5029 14.4898 13.6591 14.6628 12.75 14.7248V16.5002C12.75 16.9144 12.4143 17.2502 12 17.2502C11.5858 17.2502 11.25 16.9144 11.25 16.5002V14.7248C10.369 14.6647 9.54922 14.5004 8.78995 14.2586L7.71587 15.9093C7.48997 16.2565 7.02538 16.3548 6.67819 16.1289C6.33101 15.903 6.23269 15.4384 6.4586 15.0912L7.37101 13.689C6.50663 13.2668 5.74394 12.7504 5.07854 12.1984L4.11756 13.1594C3.82467 13.4523 3.3498 13.4523 3.0569 13.1594C2.76401 12.8665 2.76401 12.3917 3.0569 12.0988L3.98067 11.175C3.15611 10.3153 2.53537 9.44675 2.10289 8.75486C1.83997 8.33423 1.64472 7.97584 1.514 7.71988C1.4486 7.59182 1.39923 7.48914 1.36549 7.41683C1.34862 7.38067 1.33565 7.35207 1.32654 7.33167L1.31574 7.30729L1.3125 7.29984L1.31142 7.29733L1.31101 7.29638C1.31093 7.2962 1.31069 7.29563 2.00005 7.00019L1.31101 7.29638C1.14784 6.91565 1.32388 6.474 1.70461 6.31083C2.08502 6.1478 2.52551 6.32374 2.689 6.70381C2.68894 6.70368 2.68906 6.70394 2.689 6.70381L2.68996 6.706L2.69603 6.71972C2.70193 6.73291 2.71152 6.7541 2.72485 6.78267C2.75151 6.83983 2.79308 6.92644 2.84989 7.03767C2.96357 7.26029 3.13774 7.58046 3.37485 7.95979C3.85045 8.72067 4.57169 9.70728 5.55573 10.6218C6.42163 11.4265 7.48271 12.1678 8.75177 12.656C9.70626 13.0232 10.7855 13.2502 12 13.2502C13.2418 13.2502 14.3422 13.013 15.3125 12.631C16.5739 12.1345 17.6278 11.3884 18.4868 10.5822C19.4563 9.67216 20.1669 8.69535 20.6355 7.9434C20.8691 7.5685 21.0407 7.25246 21.1527 7.03286C21.2086 6.92315 21.2496 6.83776 21.2758 6.78144C21.2889 6.75328 21.2984 6.73242 21.3042 6.71943L21.3102 6.70595L21.3107 6.70475C21.3106 6.70485 21.3107 6.70466 21.3107 6.70475M22.2955 6.31083C21.9149 6.14771 21.474 6.32423 21.3107 6.70475L22.2955 6.31083ZM2.689 6.70381C2.68894 6.70368 2.68906 6.70394 2.689 6.70381V6.70381Z" fill="currentColor"/>
</svg>
